<svg xmlns="http://www.w3.org/2000/svg" width="80" height="80" viewBox="0 0 100 100"><rect width="100" height="100" rx="20" fill="#3d56b2"></rect><path fill="#fff" d="M50 80.48L50 80.48Q43.95 80.48 39.15 78.85Q34.35 77.22 30.99 74.19Q27.63 71.17 25.86 66.90Q24.08 62.62 24.08 57.44L24.08 57.44L24.08 20.38Q25.23 20.19 27.44 19.86Q29.65 19.52 31.86 19.52L31.86 19.52Q36.66 19.52 38.77 21.15Q40.88 22.78 40.88 27.49L40.88 27.49L40.88 57.15Q40.88 61.76 43.42 64.35Q45.97 66.94 50 66.94L50 66.94Q54.03 66.94 56.58 64.35Q59.12 61.76 59.12 57.15L59.12 57.15L59.12 20.38Q60.27 20.19 62.48 19.86Q64.69 19.52 66.90 19.52L66.90 19.52Q71.70 19.52 73.81 21.15Q75.92 22.78 75.92 27.49L75.92 27.49L75.92 57.44Q75.92 62.62 74.14 66.90Q72.37 71.17 69.01 74.19Q65.65 77.22 60.85 78.85Q56.05 80.48 50 80.48Z"></path></svg>